# xmcd CD database file
#
# Track frame offsets:
#	150
#	18861
#	36177
#	60511
#	78577
#
# Disc length: 1317 seconds
#
# Revision: 0
# Processed by: cddbd v1.5.2PL0 Copyright (c) Steve Scherf et al.
# Submitted via: CDex 1.70beta3
#
DISCID=32052305
DTITLE=Lee Konitz - The Cool Jazz Collection 57
DYEAR=2010
DGENRE=Jazz
TTITLE0=Sound-Lee
TTITLE1=When You're Smilin
TTITLE2=Stairway to the Stars
TTITLE3=I'm Getting Sentimental over You
TTITLE4=I Remember You
EXTD=YEAR: 2010
EXTT0=
EXTT1=
EXTT2=
EXTT3=
EXTT4=
PLAYORDER=
